<?xml version="1.0" encoding="UTF-8" standalone="no"?>
<svg width="512" height="512" viewBox="0 0 135 135" version="1.1" xmlns:xlink="http://www.w3.org/1999/xlink" xmlns="http://www.w3.org/2000/svg" xmlns:svg="http://www.w3.org/2000/svg">
   <rect style="fill:#ffffff" width="128.0000" height="112.0000" x="4.0000" y="12.0000" />
   <rect style="fill:#55b2ff" width="128.0000" height="16.0000" x="4.0000" y="12.0000" />
   <path style="fill:#000000" d="M 1.6901338,127.07007 C 1.3828219,126.9448 0.8768176,126.51851 0.56568825,126.12275 L -6.9341144e-6,125.40319 V 67.874657 C -6.9341144e-6,23.83623 0.07409113,10.183354 0.31607229,9.6520087 1.0219463,8.1019542 -3.7115247,8.2034435 67.877153,8.2034435 h 65.786837 l 0.90134,0.9018238 0.90133,0.9018247 -0.0679,57.860106 -0.0679,57.860102 -0.7336,0.73399 -0.73359,0.73399 H 105.5382 77.212836 l -0.772022,-0.86452 c -0.424617,-0.47549 -0.77203,-1.16636 -0.77203,-1.53529 0,-0.87757 0.666552,-2.14608 1.308228,-2.48968 0.339336,-0.1817 9.290277,-0.27256 26.851768,-0.27256 h 26.34274 V 77.692554 33.351884 H 67.731552 5.291517 v 44.34067 44.340676 h 26.342745 c 17.561488,0 26.512428,0.0909 26.851764,0.27256 1.419008,0.75985 1.612998,3.07076 0.356894,4.25153 l -0.678658,0.63796 -27.957685,0.0513 C 14.82985,127.27475 1.9974533,127.19528 1.6901338,127.07004 Z M 130.17158,20.777664 V 13.497852 H 67.731552 5.291517 v 7.279812 7.279812 H 67.731552 130.17158 Z M 66.775934,127.07821 c -0.794101,-0.33527 -1.690148,-1.5622 -1.690148,-2.31427 0,-0.84987 0.67565,-2.11942 1.308228,-2.45815 0.279961,-0.1499 0.88185,-0.27256 1.337538,-0.27256 1.120553,0 1.764891,0.38713 2.269575,1.3636 1.074973,2.07991 -1.110301,4.57428 -3.225193,3.68138 z M 13.473038,73.874472 c -0.76225,-0.762657 -0.77338,-0.816265 -0.77338,-3.723488 0,-1.622326 0.122584,-3.178872 0.272415,-3.458984 0.423267,-0.7913 1.781166,-1.379695 2.760041,-1.195955 1.275266,0.239367 2.047618,1.219645 2.198455,2.790298 l 0.127939,1.33224 h 1.177281 c 2.448724,0 3.629485,2.576152 1.950662,4.255889 -0.7663,0.766725 -0.801579,0.773801 -3.856707,0.773801 -3.055127,0 -3.090406,-0.0068 -3.856706,-0.773801 z m 12.388835,0.105527 c -0.788237,-0.788673 -0.974224,-1.533134 -0.673302,-2.695066 0.37007,-1.428935 1.003241,-1.66635 4.443979,-1.66635 3.374874,0 3.919149,0.190576 4.491302,1.572642 0.410562,0.991721 0.180535,1.983375 -0.653683,2.818047 -0.603652,0.60398 -0.811344,0.639001 -3.789516,0.639001 -3.016293,0 -3.179391,-0.02851 -3.81878,-0.668274 z m 12.318015,0.02942 C 37.563479,73.478912 37.43755,73.160672 37.43755,72.13345 c 0,-1.027222 0.125929,-1.345461 0.742338,-1.875964 0.693702,-0.597016 0.946168,-0.638881 3.853002,-0.638881 3.062792,0 3.121606,0.01141 3.821607,0.742465 0.952955,0.995218 0.963155,2.358381 0.02595,3.472753 l -0.684965,0.814472 h -3.136643 c -2.934306,0 -3.184529,-0.0412 -3.878981,-0.638881 z M 50.513728,73.8745 c -1.013681,-1.014233 -1.046763,-2.30187 -0.08841,-3.441418 l 0.684964,-0.814472 h 3.136643 c 2.934298,0 3.184529,0.0412 3.878981,0.638881 0.616409,0.530503 0.742338,0.848742 0.742338,1.875964 0,1.027222 -0.125929,1.345462 -0.742338,1.875964 -0.691834,0.595411 -0.94973,0.638881 -3.790566,0.638881 -3.016323,0 -3.05632,-0.0081 -3.821607,-0.7738 z m 12.534564,0.375899 c -0.899354,-0.630274 -1.242425,-2.014876 -0.77599,-3.131814 0.213122,-0.510355 0.627869,-1.05663 0.921659,-1.213949 0.293782,-0.157311 1.859463,-0.286026 3.479286,-0.286026 1.619815,0 3.185497,0.128715 3.479279,0.286026 1.387002,0.742705 1.44736,3.434019 0.09688,4.319365 -0.901693,0.591133 -6.366695,0.611161 -7.201116,0.02641 z M 75.119341,73.8745 c -0.572573,-0.572877 -0.77338,-1.024941 -0.77338,-1.741045 0,-0.716103 0.200807,-1.16816 0.77338,-1.741044 0.768767,-0.769186 0.792279,-0.773801 3.945121,-0.773801 h 3.17175 l 0.684964,0.814472 c 0.958348,1.139548 0.925266,2.427185 -0.08841,3.441418 -0.766307,0.766724 -0.801586,0.7738 -3.856714,0.7738 -3.05512,0 -3.090406,-0.0068 -3.856706,-0.7738 z m 12.359233,0.0759 c -0.533641,-0.533931 -0.697519,-0.960827 -0.697519,-1.816946 0,-0.856118 0.163878,-1.283014 0.697519,-1.816946 0.673753,-0.674119 0.802472,-0.697899 3.777487,-0.697899 3.399473,0 3.941169,0.188723 4.514094,1.572642 0.410562,0.991722 0.180535,1.983375 -0.653676,2.818047 -0.603651,0.603981 -0.811343,0.639001 -3.789523,0.639001 -3.05161,0 -3.172837,-0.02199 -3.848382,-0.697899 z m 12.397746,0.05891 c -0.834218,-0.834672 -1.064245,-1.826326 -0.653683,-2.818047 0.572925,-1.383919 1.114633,-1.572642 4.514093,-1.572642 2.97502,0 3.10374,0.02379 3.77749,0.697899 0.53364,0.533931 0.69752,0.960827 0.69752,1.816946 0,0.856118 -0.16388,1.283014 -0.69752,1.816946 -0.67555,0.675912 -0.79677,0.697899 -3.84838,0.697899 -2.97818,0 -3.18587,-0.03504 -3.78952,-0.639001 z m 12.28372,-0.1348 c -1.01368,-1.014233 -1.04677,-2.30187 -0.0884,-3.441417 0.58909,-0.700473 0.86211,-0.814472 1.95066,-0.814472 h 1.2657 l 0.13196,-1.374059 c 0.27164,-2.828583 3.04416,-3.822345 4.758,-1.705423 0.37208,0.459583 0.45822,1.122521 0.46301,3.563107 0.006,2.964508 -0.003,3.007228 -0.7675,3.772264 -0.7663,0.766725 -0.80158,0.773801 -3.85671,0.773801 -3.05512,0 -3.0904,-0.0068 -3.8567,-0.773801 z M 14.626868,62.265908 c -0.322447,-0.0517 -0.887977,-0.45271 -1.256743,-0.891192 -0.622393,-0.740086 -0.670467,-0.992321 -0.670467,-3.517844 0,-2.509465 0.04957,-2.774135 0.638893,-3.410352 1.247503,-1.346805 3.014936,-1.19822 4.057334,0.341097 1.018871,1.504574 0.715159,6.293172 -0.444626,7.010348 -0.525534,0.324971 -1.718227,0.565088 -2.324391,0.467943 z M 117.26338,62.146873 c -1.49844,-0.388498 -1.94623,-1.471992 -1.85407,-4.486153 0.0694,-2.271922 0.14908,-2.63562 0.70681,-3.229095 0.78979,-0.840413 1.951,-1.107498 2.9732,-0.683851 1.21271,0.502587 1.55751,1.4594 1.55751,4.322013 0,2.285699 -0.0583,2.577 -0.65854,3.290739 -0.7542,0.896805 -1.48522,1.107761 -2.72491,0.786347 z M 14.123856,50.139582 c -1.183004,-0.583929 -1.424198,-1.360739 -1.424198,-4.586915 0,-2.734066 0.0312,-2.894596 0.691092,-3.554841 0.857827,-0.858294 1.835502,-1.050026 4.744391,-0.930444 2.190985,0.09007 2.310997,0.127746 3.052667,0.958276 1.055005,1.181399 1.05451,2.467288 -0.0015,3.52373 -0.629496,0.629831 -0.998681,0.7738 -1.984328,0.7738 -1.171964,0 -1.210948,0.02581 -1.210948,0.802661 0,1.394485 -0.684957,2.620245 -1.701728,3.04531 -1.131668,0.473105 -1.14351,0.472932 -2.165598,-0.03159 z m 102.902174,0.03767 c -0.99978,-0.442197 -1.67072,-1.612585 -1.67072,-2.914404 0,-0.93954 -1.7e-4,-0.939667 -1.21095,-0.939667 -2.14261,0 -3.34381,-1.864663 -2.45646,-3.813237 0.47917,-1.052255 1.73271,-1.481177 4.32884,-1.481177 2.59614,0 3.84968,0.428922 4.32885,1.481177 0.16569,0.363826 0.30124,1.904819 0.30124,3.424438 0,2.646381 -0.0307,2.796203 -0.72759,3.551815 -0.89238,0.967581 -1.78563,1.180939 -2.89321,0.691055 z M 25.906197,45.586217 c -0.633298,-0.566153 -0.824363,-0.957534 -0.824363,-1.688622 0,-2.291352 1.156597,-2.950471 4.958607,-2.825823 2.438704,0.07995 2.796115,0.155585 3.394097,0.718226 0.900013,0.846837 1.099688,1.909329 0.56907,3.028136 -0.595942,1.256533 -1.340913,1.505054 -4.511627,1.505054 -2.646838,0 -2.795635,-0.03062 -3.585784,-0.736971 z m 12.554484,0.267821 c -1.357487,-1.100197 -1.44741,-2.886087 -0.20419,-4.054945 0.58449,-0.549524 0.988744,-0.650954 2.916321,-0.731711 1.230786,-0.05155 2.663278,-0.01388 3.183322,0.08372 2.203982,0.413696 2.995429,2.837927 1.435927,4.398285 -0.76462,0.765036 -0.807323,0.773733 -3.770218,0.76791 -2.439259,-0.0045 -3.101829,-0.09098 -3.561162,-0.463259 z m 12.053047,-0.30465 c -1.531198,-1.532039 -0.727601,-3.992183 1.436745,-4.398435 0.519601,-0.09754 1.971016,-0.135138 3.225365,-0.08357 2.190978,0.09007 2.310997,0.127746 3.052668,0.958276 0.860407,0.963492 0.968269,1.826343 0.372417,2.979225 -0.596729,1.154578 -1.13892,1.318305 -4.365733,1.318305 -2.905641,0 -2.95922,-0.01111 -3.721462,-0.773801 z m 12.495198,0.104844 c -1.006714,-0.847556 -1.266282,-1.943784 -0.713494,-3.01333 0.646813,-1.251483 1.626152,-1.612128 4.377815,-1.612128 2.799557,0 3.828747,0.39451 4.362294,1.672151 0.476792,1.141741 0.229959,2.172077 -0.709927,2.963362 -0.728613,0.613428 -0.980689,0.658901 -3.652367,0.658901 -2.683242,0 -2.921383,-0.04345 -3.664321,-0.668956 z m 12.261446,0.07294 c -0.460856,-0.396633 -0.741311,-0.959725 -0.838283,-1.683137 -0.126575,-0.944184 -0.04035,-1.205141 0.65591,-1.98499 0.786227,-0.880619 0.848753,-0.899701 3.250887,-0.992134 3.013744,-0.115965 4.324507,0.229304 4.868843,1.282504 0.634093,1.226873 0.506199,2.318343 -0.374968,3.19999 -0.765287,0.765704 -0.805284,0.7738 -3.821607,0.7738 -2.780305,0 -3.109096,-0.05238 -3.740782,-0.596033 z m 12.284055,-0.177767 c -0.587249,-0.587577 -0.773372,-1.019351 -0.773372,-1.794142 0,-2.175484 1.192222,-2.817156 4.98983,-2.685606 2.347783,0.08133 2.715753,0.161409 3.30988,0.720358 0.839956,0.790235 1.106889,1.952071 0.68348,2.974836 -0.516346,1.247243 -1.439647,1.558354 -4.624896,1.558354 -2.754723,0 -2.827171,-0.01561 -3.584922,-0.7738 z m 12.690403,0.376815 c -1.449674,-0.788313 -1.621495,-2.923802 -0.332804,-4.136205 0.594124,-0.558949 0.962104,-0.63903 3.309884,-0.720358 3.79761,-0.13155 4.98983,0.510122 4.98983,2.685606 0,0.774791 -0.18612,1.206565 -0.77338,1.794142 -0.76119,0.761607 -0.81849,0.773635 -3.63793,0.763197 -1.95554,-0.0075 -3.08383,-0.129847 -3.5556,-0.386382 z" />
   <rect style="fill:#d0ec7e;stroke:#000000;stroke-width:4.81819;stroke-linejoin:round;stroke-miterlimit:4;stroke-dasharray:none" width="26.0000" height="26.0000" x="15.0000" y="85.0000" />
   <rect style="fill:#d0ec7e;stroke:#000000;stroke-width:4.81819;stroke-linejoin:round;stroke-miterlimit:4;stroke-dasharray:none" width="26.0000" height="26.0000" x="53.0000" y="85.0000" />
   <rect style="fill:#d0ec7e;stroke:#000000;stroke-width:4.81819;stroke-linejoin:round;stroke-miterlimit:4;stroke-dasharray:none" width="26.0000" height="26.0000" x="92.0000" y="85.0000" />
</svg>
