<?xml version="1.0" encoding="UTF-8"?>
<svg width="512" height="512" version="1.1" viewBox="0 0 135 135" xmlns="http://www.w3.org/2000/svg">
 <rect x="4" y="12" width="128" height="112" style="fill:#fff"/>
 <rect x="4" y="12" width="128" height="16" style="fill:#55b2ff"/>
 <path d="m1.6901 127.07c-0.30731-0.12527-0.81332-0.55156-1.1244-0.94732l-0.56569-0.71956v-57.529c0-44.038 0.0741-57.691 0.31608-58.223 0.70587-1.5501-4.0276-1.4486 67.561-1.4486h65.787l0.90134 0.90182 0.90133 0.90182-0.0679 57.86-0.0679 57.86-1.4672 1.468h-56.651l-0.77202-0.86452c-0.42462-0.47549-0.77203-1.1664-0.77203-1.5353 0-0.87757 0.66655-2.1461 1.3082-2.4897 0.33934-0.1817 9.2903-0.27256 26.852-0.27256h26.343v-88.681h-124.88v88.681h26.343c17.561 0 26.512 0.0909 26.852 0.27256 1.419 0.75985 1.613 3.0708 0.35689 4.2515l-0.67866 0.63796-27.958 0.0513c-15.377 0.0282-28.209-0.0513-28.516-0.17654zm128.48-106.29v-7.2798h-124.88v14.56h124.88zm-63.396 106.3c-0.7941-0.33527-1.6901-1.5622-1.6901-2.3143 0-0.84987 0.67565-2.1194 1.3082-2.4582 0.27996-0.1499 0.88185-0.27256 1.3375-0.27256 1.1206 0 1.7649 0.38713 2.2696 1.3636 1.075 2.0799-1.1103 4.5743-3.2252 3.6814z"/>
 <rect x="92.265" y="45.942" width="26" height="26" style="fill:#d0ec7e;stroke-width:4;stroke:#000"/>
 <rect x="17.202" y="45.942" width="64.64" height="63.496" style="fill:#fff;stroke-dasharray:4.2;stroke-width:4;stroke:#000"/>
 <rect x="25.664" y="54.011" width="35.068" height="35.068" style="fill:#d0ec7e;stroke-width:4;stroke:#000"/>
 <rect x="91.469" y="83.438" width="26" height="26" style="fill:#d0ec7e;stroke-width:4;stroke:#000"/>
</svg>
