<?xml version="1.0" encoding="UTF-8"?>
<!-- Created with Inkscape (http://www.inkscape.org/) -->
<svg width="2e3" height="1500" version="1.1" viewBox="0 0 530.64 397.98" xmlns="http://www.w3.org/2000/svg">
 <g transform="translate(-4 41.611)">
  <rect x="149.4" y="20.562" width="240.67" height="313.87" rx="5.1572" ry="6.0167" style="fill:#fff;stop-color:#000000"/>
  <path d="m288.07 323.8c0.39239-0.0954 0.73827-0.47501 0.73827-0.47501s-1.0151-2.43-1.3644-3.2248c1.6218 0.0472 1.6841-0.21482 3.2199-0.26388 0.11284-0.16456 0.20086-0.94571 0.20086-0.94571s-2.9548 0.19386-4.7777 0.40462c0.38312 1.6361 1.983 4.5047 1.983 4.5047z" style="fill:#333;stop-color:#000000;stroke-width:3.9919"/>
  <path d="m272.12 79.675c0.27857-0.29236 0.36444-0.79867 0.36444-0.79867s-2.1674-1.4959-2.8909-1.9758c1.3901-0.83677 1.3008-1.0909 2.5665-1.9622 6e-3 -0.19944-0.34212-0.90425-0.34212-0.90425s-2.3813 1.7601-3.8011 2.9226c1.2066 1.1695 4.103 2.7184 4.103 2.7184z" style="fill:#333;stop-color:#000000;stroke-width:3.9919"/>
  <path d="m259.45 94.334c0.27857-0.29236 0.36444-0.79867 0.36444-0.79867s-2.1674-1.4959-2.8909-1.9758c1.3901-0.83677 1.3008-1.0909 2.5665-1.9623 6e-3 -0.19944-0.34212-0.90425-0.34212-0.90425s-2.3813 1.7601-3.8011 2.9226c1.2066 1.1695 4.103 2.7184 4.103 2.7184z" style="fill:#333;stop-color:#000000;stroke-width:3.9919"/>
  <g transform="matrix(1.0046 0 0 1 -1.0237 -.53248)">
   <text transform="scale(.99071 1.0094)" x="163.61607" y="66.601822" style="fill:#000000;font-family:'JetBrains Mono';font-size:9.4288px;font-weight:500;line-height:1.25;stroke-width:.26458" xml:space="preserve"><tspan x="163.61607" y="66.601822" style="fill:#96928f;font-size:9.4288px;font-style:italic;font-variant-caps:normal;font-variant-east-asian:normal;font-variant-ligatures:normal;font-variant-numeric:normal;font-weight:500;stroke-width:.26458">{#</tspan><tspan x="163.61607" y="78.722076" style="fill:#96928f;font-size:9.4288px;font-style:italic;font-variant-caps:normal;font-variant-east-asian:normal;font-variant-ligatures:normal;font-variant-numeric:normal;font-weight:500;stroke-width:.26458">css = ['form.css']</tspan><tspan x="163.61607" y="90.842331" style="fill:#96928f;font-size:9.4288px;font-style:italic;font-variant-caps:normal;font-variant-east-asian:normal;font-variant-ligatures:normal;font-variant-numeric:normal;font-weight:500;stroke-width:.26458">js = ['form.js']</tspan><tspan x="163.61607" y="102.96254" style="fill:#96928f;font-size:9.4288px;font-style:italic;font-variant-caps:normal;font-variant-east-asian:normal;font-variant-ligatures:normal;font-variant-numeric:normal;font-weight:500;stroke-width:.26458"/><tspan x="163.61607" y="115.08278" style="fill:#96928f;font-size:9.4288px;font-style:italic;font-variant-caps:normal;font-variant-east-asian:normal;font-variant-ligatures:normal;font-variant-numeric:normal;font-weight:500;stroke-width:.26458">method = 'post'</tspan><tspan x="163.61607" y="127.20301" style="fill:#96928f;font-size:9.4288px;font-style:italic;font-variant-caps:normal;font-variant-east-asian:normal;font-variant-ligatures:normal;font-variant-numeric:normal;font-weight:500;stroke-width:.26458">action = ''</tspan><tspan x="163.61607" y="139.32326" style="fill:#96928f;font-size:9.4288px;font-style:italic;font-variant-caps:normal;font-variant-east-asian:normal;font-variant-ligatures:normal;font-variant-numeric:normal;font-weight:500;stroke-width:.26458">label = ...</tspan><tspan x="163.61607" y="151.44348" style="fill:#96928f;font-size:9.4288px;font-style:italic;font-variant-caps:normal;font-variant-east-asian:normal;font-variant-ligatures:normal;font-variant-numeric:normal;font-weight:500;stroke-width:.26458">-#}</tspan><tspan x="163.61607" y="163.56372" style="fill:#348acb;font-size:9.4288px;font-variant-caps:normal;font-variant-east-asian:normal;font-variant-ligatures:normal;font-variant-numeric:normal;font-weight:500;stroke-width:.26458">&lt;form</tspan><tspan x="163.61607" y="175.68396" style="fill:#348acb;font-size:9.4288px;font-variant-caps:normal;font-variant-east-asian:normal;font-variant-ligatures:normal;font-variant-numeric:normal;font-weight:500;stroke-width:.26458">  <tspan style="fill:#b12ca8;font-family:'JetBrains Mono';font-size:9.4288px;font-variant-caps:normal;font-variant-east-asian:normal;font-variant-ligatures:normal;font-variant-numeric:normal;font-weight:500;stroke-width:.26458">method</tspan><tspan style="fill:#4d4d4c;stroke-width:.26458">=</tspan><tspan style="fill:#3c8412;stroke-width:.26458">"<tspan style="fill:#001ffe;stroke-width:.26458">{{</tspan> </tspan><tspan style="fill:#333333;stroke-width:.26458">method</tspan><tspan style="fill:#3c8412;stroke-width:.26458"> <tspan style="fill:#001ffe;stroke-width:.26458">}}</tspan>"</tspan></tspan><tspan x="163.61607" y="187.8042" style="fill:#348acb;font-size:9.4288px;font-variant-caps:normal;font-variant-east-asian:normal;font-variant-ligatures:normal;font-variant-numeric:normal;font-weight:500;stroke-width:.26458">  <tspan style="fill:#b12ca8;font-style:italic;font-weight:500;stroke-width:.26458">action</tspan><tspan style="fill:#4d4d4c;stroke-width:.26458">=</tspan><tspan style="fill:#3c8412;stroke-width:.26458">"</tspan><tspan style="fill:#001ffe;stroke-width:.26458">{{</tspan> <tspan style="fill:#333333;stroke-width:.26458">action</tspan> <tspan style="fill:#001ffe;stroke-width:.26458">}}</tspan><tspan style="fill:#3c8412;stroke-width:.26458">"</tspan></tspan><tspan x="163.61607" y="199.92444" style="fill:#348acb;font-size:9.4288px;font-variant-caps:normal;font-variant-east-asian:normal;font-variant-ligatures:normal;font-variant-numeric:normal;font-weight:500;stroke-width:.26458">  <tspan style="fill:#001ffe;stroke-width:.26458">{{</tspan> <tspan style="fill:#333333;stroke-width:.26458">html_attrs</tspan> <tspan style="fill:#001ffe;stroke-width:.26458">}}</tspan></tspan><tspan x="163.61607" y="212.04468" style="fill:#348acb;font-size:9.4288px;font-variant-caps:normal;font-variant-east-asian:normal;font-variant-ligatures:normal;font-variant-numeric:normal;font-weight:500;stroke-width:.26458">&gt;</tspan><tspan x="163.61607" y="224.16492" style="fill:#348acb;font-size:9.4288px;font-variant-caps:normal;font-variant-east-asian:normal;font-variant-ligatures:normal;font-variant-numeric:normal;font-weight:500;stroke-width:.26458">  <tspan style="fill:#001ffe;stroke-width:.26458">{%</tspan> <tspan style="fill:#7c13a4;font-style:italic;font-weight:500;stroke-width:.26458">if</tspan> <tspan style="fill:#333333;stroke-width:.26458">method.lower()</tspan> == <tspan style="fill:#3c8412;stroke-width:.26458">"post"</tspan> <tspan style="fill:#001ffe;stroke-width:.26458">-%}</tspan></tspan><tspan x="163.61607" y="236.28516" style="fill:#348acb;font-size:9.4288px;font-variant-caps:normal;font-variant-east-asian:normal;font-variant-ligatures:normal;font-variant-numeric:normal;font-weight:500;stroke-width:.26458">  &lt;input <tspan style="fill:#b12ca8;font-style:italic;font-weight:500;stroke-width:.26458">type</tspan><tspan style="fill:#4d4d4c;stroke-width:.26458">=</tspan><tspan style="fill:#3c8412;stroke-width:.26458">"hidden"</tspan> <tspan style="fill:#b12ca8;font-style:italic;font-weight:500;stroke-width:.26458">name</tspan><tspan style="fill:#4d4d4c;stroke-width:.26458">=</tspan><tspan style="fill:#3c8412;stroke-width:.26458">"csrftoken"</tspan></tspan><tspan x="163.61607" y="248.4054" style="fill:#348acb;font-size:9.4288px;font-variant-caps:normal;font-variant-east-asian:normal;font-variant-ligatures:normal;font-variant-numeric:normal;font-weight:500;stroke-width:.26458">    <tspan style="fill:#b12ca8;font-style:italic;font-weight:500;stroke-width:.26458">value</tspan><tspan style="fill:#4d4d4c;stroke-width:.26458">=</tspan><tspan style="fill:#3c8412;stroke-width:.26458">"</tspan><tspan style="fill:#001ffe;stroke-width:.26458">{{</tspan> <tspan style="fill:#333333;stroke-width:.26458">csrftoken</tspan> <tspan style="fill:#001ffe;stroke-width:.26458">}}</tspan><tspan style="fill:#3c8412;stroke-width:.26458">"</tspan>&gt;</tspan><tspan x="163.61607" y="260.52563" style="fill:#348acb;font-size:9.4288px;font-variant-caps:normal;font-variant-east-asian:normal;font-variant-ligatures:normal;font-variant-numeric:normal;font-weight:500;stroke-width:.26458">  <tspan style="fill:#001ffe;stroke-width:.26458">{%</tspan> <tspan style="fill:#7c13a4;font-style:italic;font-weight:500;stroke-width:.26458">endif</tspan> <tspan style="fill:#001ffe;stroke-width:.26458">-%}</tspan></tspan><tspan x="163.61607" y="272.64584" style="fill:#348acb;font-size:9.4288px;font-variant-caps:normal;font-variant-east-asian:normal;font-variant-ligatures:normal;font-variant-numeric:normal;font-weight:500;stroke-width:.26458"/><tspan x="163.61607" y="284.6445" style="fill:#348acb;font-size:9.4288px;font-variant-caps:normal;font-variant-east-asian:normal;font-variant-ligatures:normal;font-variant-numeric:normal;font-weight:500;stroke-width:.26458">  <tspan style="fill:#001ffe;stroke-width:.26458">{{ <tspan style="fill:#333333;stroke-width:.26458">content</tspan> }}</tspan></tspan><tspan x="163.61607" y="296.76474" style="fill:#348acb;font-size:9.4288px;font-variant-caps:normal;font-variant-east-asian:normal;font-variant-ligatures:normal;font-variant-numeric:normal;font-weight:500;stroke-width:.26458"/><tspan x="163.61607" y="308.76343" style="fill:#348acb;font-size:9.4288px;font-variant-caps:normal;font-variant-east-asian:normal;font-variant-ligatures:normal;font-variant-numeric:normal;font-weight:500;stroke-width:.26458">  &lt;Button <tspan style="fill:#b12ca8;stroke-width:.26458">label</tspan><tspan style="fill:#4d4d4c;stroke-width:.26458">=</tspan><tspan style="fill:#001ffe;stroke-width:.26458">{{</tspan> <tspan style="fill:#333333;stroke-width:.26458">label</tspan> <tspan style="fill:#001ffe;stroke-width:.26458">}}</tspan> /&gt;</tspan><tspan x="163.61607" y="320.88367" style="fill:#348acb;font-size:9.4288px;font-variant-caps:normal;font-variant-east-asian:normal;font-variant-ligatures:normal;font-variant-numeric:normal;font-weight:500;stroke-width:.26458">&lt;/form&gt;</tspan><tspan x="163.61607" y="333.00391" style="fill:#348acb;font-size:9.4288px;font-variant-caps:normal;font-variant-east-asian:normal;font-variant-ligatures:normal;font-variant-numeric:normal;font-weight:500;stroke-width:.26458"/></text>
   <text transform="matrix(1.8914 0 0 1.927 -372.28 -32.089)" x="281.99014" y="36.902409" style="fill:#333333;font-family:sans-serif;font-size:4.9389px;inline-size:116.856;line-height:1.25;white-space:pre" xml:space="preserve"/>
   <path d="m159.73 47.745h179.1" style="fill:none;stroke-dasharray:1, 0.5;stroke-width:.5;stroke:#dfdfdf"/>
  </g>
  <text transform="matrix(1.4615 .095283 -.096687 1.4906 -324.27 -134.88)" x="403.10562" y="36.902409" style="fill:#000000;font-family:'Bradley Hand';font-size:7.6537px;font-variant-caps:normal;font-variant-east-asian:normal;font-variant-ligatures:normal;font-variant-numeric:normal;font-weight:bold;inline-size:184.998;line-height:1.25;white-space:pre" xml:space="preserve"/>
  <text transform="matrix(.98913 .046764 -.045851 1.0088 0 0)" x="109.80433" y="-18.052265" style="fill:#000000;font-family:'Bradley Hand';font-size:11.32px;font-variant-caps:normal;font-variant-east-asian:normal;font-variant-ligatures:normal;font-variant-numeric:normal;font-weight:bold;line-height:1.25;stroke-width:.26532" xml:space="preserve"><tspan x="109.80433" y="-18.052265" style="font-family:'Bradley Hand';font-size:11.32px;font-variant-caps:normal;font-variant-east-asian:normal;font-variant-ligatures:normal;font-variant-numeric:normal;font-weight:bold;stroke-width:.26532;text-align:center;text-anchor:middle">Metadata TOML opcional</tspan><tspan x="109.80433" y="-3.90189" style="font-family:'Bradley Hand';font-size:11.32px;font-variant-caps:normal;font-variant-east-asian:normal;font-variant-ligatures:normal;font-variant-numeric:normal;font-weight:bold;stroke-width:.26532;text-align:center;text-anchor:middle">en un comentario de JInja</tspan></text>
  <text transform="matrix(1.4605 -.11144 .10926 1.4896 -79.084 -47.767)" x="64.277588" y="93.129066" style="fill:#000000;font-family:'Bradley Hand';font-size:7.6537px;font-variant-caps:normal;font-variant-east-asian:normal;font-variant-ligatures:normal;font-variant-numeric:normal;font-weight:bold;inline-size:71.7898;line-height:1.25;white-space:pre" xml:space="preserve"/>
  <text transform="matrix(1.4624 .081553 -.079962 1.4915 -115.69 -8.0407)" x="339.2847" y="36.902409" style="fill:#000000;font-family:'Bradley Hand';font-size:7.6537px;font-variant-caps:normal;font-variant-east-asian:normal;font-variant-ligatures:normal;font-variant-numeric:normal;font-weight:bold;inline-size:130.429;line-height:1.25;text-align:center;text-anchor:middle;white-space:pre" xml:space="preserve"/>
  <text transform="matrix(1.4386 -.27989 .27443 1.4673 -480.51 241.94)" x="340.1525" y="36.902409" style="fill:#000000;font-family:'Bradley Hand';font-size:7.6537px;font-variant-caps:normal;font-variant-east-asian:normal;font-variant-ligatures:normal;font-variant-numeric:normal;font-weight:bold;inline-size:85.2911;line-height:1.25;white-space:pre" xml:space="preserve"/>
  <text transform="matrix(1.4616 .099309 -.094255 1.4903 -93.05 107.67)" x="334.92789" y="36.902409" style="fill:#000000;font-family:'Bradley Hand';font-size:7.6537px;font-variant-caps:normal;font-variant-east-asian:normal;font-variant-ligatures:normal;font-variant-numeric:normal;font-weight:bold;inline-size:88.8965;line-height:1.25;white-space:pre" xml:space="preserve"/>
  <text transform="matrix(1.4624 .09282 -.084993 1.4905 -92.701 243.61)" x="308.31085" y="36.902409" style="fill:#000000;font-family:'Bradley Hand';font-size:7.6537px;font-variant-caps:normal;font-variant-east-asian:normal;font-variant-ligatures:normal;font-variant-numeric:normal;font-weight:bold;inline-size:67.0726;line-height:1.25;white-space:pre" xml:space="preserve"/>
  <text transform="matrix(1.1851 .14406 -.1267 1.2817 -76.862 41.42)" x="307.17737" y="36.902409" style="fill:#000000;font-family:'Bradley Hand';font-size:6.8477px;font-variant-caps:normal;font-variant-east-asian:normal;font-variant-ligatures:normal;font-variant-numeric:normal;font-weight:bold;inline-size:71.7802;line-height:1.25;white-space:pre" xml:space="preserve"/>
  <text x="109.59755" y="-14.017689" style="font-family:'Bradley Hand';font-size:11.32px;font-variant-caps:normal;font-variant-east-asian:normal;font-variant-ligatures:normal;font-variant-numeric:normal;font-weight:bold;line-height:1.25;stroke-width:.26532;text-align:center;text-anchor:middle" xml:space="preserve"><tspan style="font-family:'Bradley Hand';font-size:11.32px;font-variant-caps:normal;font-variant-east-asian:normal;font-variant-ligatures:normal;font-variant-numeric:normal;font-weight:bold;stroke-width:.26532"/></text>
  <path d="m156.03 59.497c-5.2004-1.9919-9.6402-5.3281-13.965-8.7609-3.451-2.7393-6.8616-5.6696-10.225-8.5166-7.0075-5.7644-13.188-12.406-19.221-19.157-3.1105-3.5276-6.3205-6.9589-9.8224-10.1-0.6972-0.73004-1.5736-1.2787-2.2914-1.9855-0.15838-0.15595-0.26713-0.34956-0.43432-0.50102-0.38026-0.3417-0.64475-0.80552-0.94757-1.2158-0.04738-0.079999-1.1788 0.59006-1.1314 0.67006 0.30756 0.4188 0.57657 0.89081 0.95548 1.2463 0.18156 0.14555 0.27856 0.33672 0.44421 0.497 0.7243 0.70082 1.6184 1.2312 2.3122 1.9672 3.5127 3.126 6.7234 6.5552 9.8455 10.069 6.0657 6.735 12.248 13.391 19.289 19.134 3.2699 2.7607 6.8922 5.8535 10.226 8.5226 4.3111 3.4518 8.7116 6.8204 13.896 8.8592 0.0516 0.07566 1.1216-0.65399 1.07-0.72965z" style="fill:#333;stop-color:#000000;stroke-width:4.2451"/>
  <path d="m313.29 37.435c10.789-3.4674 21.734-6.8304 31.025-13.577 0.88384-0.64181 5.3039-3.9094 5.16-6.4156-0.0323-0.56311-0.71297-0.87419-1.0694-1.3113-0.24906-0.13724-0.51268-0.25082-0.74714-0.41172-0.0711-0.0488 0.16532 0.09035 0.24913 0.06997 0.2199-0.05348 0.42701-0.15969 0.61817-0.28086 1.0053-0.63724 1.9603-1.4209 2.8636-2.1949 0.12688-0.13982 0.23595-0.29815 0.3806-0.41947 0.0228-0.01908 0.1134 0.0326 0.0838 0.02996-0.21485-0.01921-0.42814-0.05326-0.6422-0.07989 0.0416 0.06246 0.92488-0.52584 0.88327-0.5883-0.9136-0.2961-0.85353-0.38267-1.4616 0.31292-0.87837 0.74638-0.49944 0.44571-1.6357 1.2893-0.43534 0.32322-1.917 1.2903-2.1508 1.8983-0.29954 0.77913 0.39215 0.92721 0.81255 1.1293 0.26757 0.07999 0.78171-0.03851 0.80275 0.23998 0.1784 2.3612-4.0926 5.3826-4.7895 5.8876-9.1688 6.6425-19.957 9.9641-30.598 13.383-0.0735 0.01523 0.14195 1.0544 0.21542 1.0392z" style="fill:#333;stop-color:#000000;stroke-width:4.2451"/>
  <path d="m316.27 38.925c0.19701-0.35251 0.15413-0.86425 0.15413-0.86425s-2.4716-0.90925-3.2918-1.1939c1.138-1.1565 0.98827-1.3804 1.9972-2.5394-0.0438-0.19465-0.55647-0.79061-0.55647-0.79061s-1.8682 2.2975-2.9538 3.7769c1.4597 0.83228 4.6506 1.6113 4.6506 1.6113z" style="fill:#333;stop-color:#000000;stroke-width:3.9919"/>
  <path d="m269.62 77.451h23.296 6.8503 2.0097c-0.49665-0.03412-0.32337 0.0883-0.52709-0.35679-0.0368 0.06537 0.88761 0.58661 0.92449 0.52124 0.16699-1.0297 0.33687-0.61762-0.56344-1.2127h-2.0097-6.8503-23.296c-0.0741 0.01173 0.0919 1.06 0.16601 1.0482z" style="fill:#333;stop-color:#000000;stroke-width:4.2451"/>
  <path d="m256.98 92.001c2.6225-0.07199 5.2457-0.11818 7.8674-0.21597 3.146-0.11734 6.2943-0.20176 9.4351-0.42942 7.844-0.56855 15.596-1.7631 23.405-2.6291 1.5318-0.16986 3.0685-0.2829 4.6028-0.42435 0.22251-0.0082 3.3648 0.38038 1.4417-0.64094-0.23187-0.12313-0.50689-0.10439-0.76033-0.15658-0.066 0.02139 0.2117 1.0386 0.27773 1.0172 0.46675-0.16809 1.1098-0.0722 1.4002-0.50428 0.52667-0.78355-3.4093-2.4021-2.5848-0.74792-1.543 0.14384-3.0882 0.26018-4.6288 0.43152-7.7834 0.86564-15.529 2.0504-23.342 2.6131-3.1361 0.22588-6.2796 0.31032-9.4208 0.42646-2.6146 0.09667-5.2306 0.14131-7.8458 0.21197-0.068 0.01173 0.0844 1.06 0.1524 1.0482z" style="fill:#333;stop-color:#000000;stroke-width:4.0673"/>
  <path d="m225.36 140.72 34.386 0.0663h17.219c0.34486-0.0805 0.69214-0.15135 1.0346-0.24155 0.23687-0.0624 0.85677-0.28839 1.1724-0.32137 0.0713-7e-3 0.2835 0.0413 0.21311 0.028-0.45097-0.0856-0.36763-0.0718-0.0961 0.0538 0.0666 0.0346 0.55568-0.90727 0.48909-0.94186-0.23876-0.0209-0.0461 8e-4 -0.55903-0.16016-0.82271-0.11351-1.6084 0.53232-2.4201 0.53492h-17.219l-34.386-0.0663s-1.301 1.0482 0.16602 1.0482z" style="fill:#333;stop-color:#000000;stroke-width:.12734"/>
  <path d="m155.36 119.62h-59.189c0.83804 0.3494 1.6761 0.69881 2.5141 1.0482 0.07412-0.0117-0.0919-1.06-0.16602-1.0482-0.83804 0.3494-1.6761 0.69881-2.5141 1.0482h59.189c0.0741 0.0117 0.24014-1.0365 0.16602-1.0482z" style="fill:#333;stop-color:#000000;stroke-width:4.2451"/>
  <path d="m156.59 140.76c-5.1779 6.1751-6.5611 7.2861-10.656 14.425-1.1298 1.9698-2.1286 4.0268-2.9173 6.1563-1.3186 3.5599-1.5731 7.3905-1.9384 11.125-0.25415 2.2744-1.4425 4.0626-2.9397 5.717-0.30464 0.33663-0.63047 0.65575-0.9774 0.94861-0.0477 0.0403-0.2249-0.0154-0.18455 0.0322 0.23299 0.27522 0.54302 0.47461 0.81454 0.71192 0.0813-0.11596 0.1625-0.23193 0.24375-0.34789 0.0366-0.0655-0.8901-0.58282-0.92668-0.51729-8e-3 0.0245-0.0158 0.0489-0.0237 0.0734 0.14447 0.33092 0.15804 0.7592 0.43341 0.99276 0.12935 0.10971 0.31544-0.13793 0.44398-0.24859 0.37022-0.31871 0.71876-0.66426 1.0419-1.0306 1.597-1.8103 2.8573-3.7833 3.1316-6.2385 0.35406-3.6195 0.58326-7.3571 1.8595-10.807 0.77295-2.0892 1.7513-4.1078 2.8598-6.0399 4.0489-7.0572 5.4068-8.1431 10.527-14.246 0.05-0.056-0.7417-0.76277-0.79168-0.70679z" style="fill:#333;stop-color:#000000;stroke-width:4.2451"/>
  <path d="m357.64 331.19c-13.504-1.8722-27.041-3.6339-40.461-5.7812-6.2032-0.99247-12.369-2.092-18.531-3.2-9.6653-1.7381-7.0063-0.58305-10.793-2.4045-0.0821-0.0496-1.1051 0.74664-1.023 0.79628 4.1763 1.9674 1.3944 0.81705 11.215 2.5861 6.1758 1.1125 12.356 2.2161 18.574 3.212 13.426 2.1506 26.97 3.9135 40.481 5.7863 0.1025 0.026 0.64043-0.96903 0.53787-0.9951z" style="fill:#333;stop-color:#000000;stroke-width:5.1261"/>
  <path d="m154.8 56.183c-0.39527 0.08268-0.75326 0.45088-0.75326 0.45088s0.93605 2.4616 1.2596 3.2672c-1.6194-0.09959-2.8453-0.11069-4.3819-0.11126-0.11817 0.16074-0.22229 0.94147-0.74938 0.93904 2.0831 0.02655 4.6328 0.17235 6.4615 0.02055-0.33005-1.6476-1.8364-4.5664-1.8364-4.5664z" style="fill:#333;stop-color:#000000;stroke-width:3.9919"/>
  <path d="m152.2 117.41c-0.26973 0.30054-0.3405 0.80916-0.3405 0.80916s2.211 1.4306 2.9485 1.8887c-1.3645 0.87786-2.3593 1.5942-3.5985 2.5029-1.6e-4 0.19951 0.37783 0.89053-0.0485 1.2004 1.6951-1.2111 3.8368-2.6021 5.2213-3.8064-1.2409-1.133-4.1823-2.5948-4.1823-2.5948z" style="fill:#333;stop-color:#000000;stroke-width:3.9919"/>
  <path d="m153.03 141.18c0.039 0.40194 0.36581 0.79804 0.36581 0.79804s2.5492-0.6613 3.3853-0.89478c-0.27606 1.5988-0.42112 2.8161-0.5897 4.3435 0.14688 0.135 0.91153 0.3239 0.85149 0.84756 0.25409-2.0678 0.67783-4.5862 0.72683-6.4205-1.6738 0.14794-4.7398 1.3262-4.7398 1.3262z" style="fill:#333;stop-color:#000000;stroke-width:3.9919"/>
  <path d="m227.48 142.91c0.27857-0.29236 0.36444-0.79867 0.36444-0.79867s-2.1674-1.4959-2.8909-1.9758c1.3901-0.83677 1.3008-1.0909 2.5665-1.9622 6e-3 -0.19944-0.34212-0.90425-0.34212-0.90425s-2.3813 1.7601-3.8011 2.9226c1.2066 1.1695 4.103 2.7184 4.103 2.7184z" style="fill:#333;stop-color:#000000;stroke-width:.11976"/>
 </g>
</svg>
