<?xml version="1.0" encoding="UTF-8" standalone="no"?>
<!-- Created with Inkscape (http://www.inkscape.org/) -->

<svg
   width="2000"
   height="1500"
   viewBox="0 0 530.64092 397.98069"
   version="1.1"
   id="svg6983"
   inkscape:version="1.2 (dc2aeda, 2022-05-15)"
   sodipodi:docname="component-anatomy.svg"
   inkscape:export-filename="index-component.png"
   inkscape:export-xdpi="96"
   inkscape:export-ydpi="96"
   xmlns:inkscape="http://www.inkscape.org/namespaces/inkscape"
   xmlns:sodipodi="http://sodipodi.sourceforge.net/DTD/sodipodi-0.dtd"
   xmlns="http://www.w3.org/2000/svg"
   xmlns:svg="http://www.w3.org/2000/svg">
  <sodipodi:namedview
     id="namedview6985"
     pagecolor="#ffffff"
     bordercolor="#666666"
     borderopacity="1.0"
     inkscape:showpageshadow="2"
     inkscape:pageopacity="1"
     inkscape:pagecheckerboard="true"
     inkscape:deskcolor="#d1d1d1"
     inkscape:document-units="mm"
     showgrid="false"
     inkscape:zoom="1"
     inkscape:cx="745"
     inkscape:cy="236.5"
     inkscape:window-width="1280"
     inkscape:window-height="747"
     inkscape:window-x="0"
     inkscape:window-y="25"
     inkscape:window-maximized="0"
     inkscape:current-layer="layer1"
     showguides="true" />
  <defs
     id="defs6980" />
  <g
     inkscape:label="Layer 1"
     inkscape:groupmode="layer"
     id="layer1"
     transform="translate(-4.0000058,41.611017)">
    <rect
       style="fill:#ffffff;fill-opacity:1;stroke:none;stroke-width:0.999779;stroke-dasharray:none;stop-color:#000000"
       id="rect4129"
       width="280.78009"
       height="313.87201"
       x="149.69836"
       y="21.094202"
       rx="6.016716"
       ry="6.016716" />
    <path
       id="path11676-6-4"
       style="fill:#333333;stroke-width:3.99186;stop-color:#000000"
       d="m 288.07401,323.80214 c 0.39239,-0.0954 0.73827,-0.47501 0.73827,-0.47501 0,0 -1.01509,-2.43003 -1.36445,-3.22481 1.6218,0.0472 1.68407,-0.21482 3.21991,-0.26388 0.11284,-0.16456 0.20086,-0.94571 0.20086,-0.94571 0,0 -2.95481,0.19386 -4.77766,0.40462 0.38312,1.63607 1.98302,4.50469 1.98302,4.50469 z"
       sodipodi:nodetypes="cccccccc" />
    <path
       id="path11676-6-3"
       style="fill:#333333;stroke-width:3.99186;stop-color:#000000"
       d="m 272.11844,79.675069 c 0.27857,-0.29236 0.36444,-0.79867 0.36444,-0.79867 0,0 -2.1674,-1.49594 -2.89088,-1.97583 1.39006,-0.83677 1.30082,-1.09091 2.56652,-1.96225 0.006,-0.19944 -0.34212,-0.90425 -0.34212,-0.90425 0,0 -2.38132,1.76006 -3.8011,2.92256 1.20657,1.16948 4.10304,2.71838 4.10304,2.71838 z"
       sodipodi:nodetypes="cccccccc" />
    <path
       id="path11676-6-2"
       style="fill:#333333;stroke-width:3.99186;stop-color:#000000"
       d="m 259.44938,94.334025 c 0.27857,-0.29236 0.36444,-0.79867 0.36444,-0.79867 0,0 -2.1674,-1.49594 -2.89088,-1.97583 1.39006,-0.836773 1.30082,-1.090913 2.56652,-1.962253 0.006,-0.19944 -0.34212,-0.90425 -0.34212,-0.90425 0,0 -2.38132,1.76006 -3.8011,2.922563 1.20657,1.16948 4.10304,2.71838 4.10304,2.71838 z"
       sodipodi:nodetypes="cccccccc" />
    <g
       id="g700">
      <text
         xml:space="preserve"
         style="font-style:normal;font-weight:500;font-size:9.42882px;line-height:1.25;font-family:'JetBrains Mono';-inkscape-font-specification:'JetBrains Mono, SemiBold';fill:#000000;fill-opacity:1;stroke:none;stroke-width:0.264584"
         x="163.61607"
         y="66.601822"
         id="text83"
         transform="scale(0.99071356,1.0093735)"><tspan
           id="tspan81"
           style="font-style:italic;font-variant:normal;font-weight:500;font-stretch:normal;font-size:9.42882px;-inkscape-font-specification:'JetBrains Mono, SemiBold Italic';font-variant-ligatures:normal;font-variant-caps:normal;font-variant-numeric:normal;font-variant-east-asian:normal;fill:#96928f;fill-opacity:1;stroke-width:0.264584"
           x="163.61607"
           y="66.601822">{#</tspan><tspan
           style="font-style:italic;font-variant:normal;font-weight:500;font-stretch:normal;font-size:9.42882px;-inkscape-font-specification:'JetBrains Mono, SemiBold Italic';font-variant-ligatures:normal;font-variant-caps:normal;font-variant-numeric:normal;font-variant-east-asian:normal;fill:#96928f;fill-opacity:1;stroke-width:0.264584"
           x="163.61607"
           y="78.722076"
           id="tspan85">css = ['form.css']</tspan><tspan
           style="font-style:italic;font-variant:normal;font-weight:500;font-stretch:normal;font-size:9.42882px;-inkscape-font-specification:'JetBrains Mono, SemiBold Italic';font-variant-ligatures:normal;font-variant-caps:normal;font-variant-numeric:normal;font-variant-east-asian:normal;fill:#96928f;fill-opacity:1;stroke-width:0.264584"
           x="163.61607"
           y="90.842331"
           id="tspan87">js = ['form.js']</tspan><tspan
           style="font-style:italic;font-variant:normal;font-weight:500;font-stretch:normal;font-size:9.42882px;-inkscape-font-specification:'JetBrains Mono, SemiBold Italic';font-variant-ligatures:normal;font-variant-caps:normal;font-variant-numeric:normal;font-variant-east-asian:normal;fill:#96928f;fill-opacity:1;stroke-width:0.264584"
           x="163.61607"
           y="102.96254"
           id="tspan89" /><tspan
           style="font-style:italic;font-variant:normal;font-weight:500;font-stretch:normal;font-size:9.42882px;-inkscape-font-specification:'JetBrains Mono, SemiBold Italic';font-variant-ligatures:normal;font-variant-caps:normal;font-variant-numeric:normal;font-variant-east-asian:normal;fill:#96928f;fill-opacity:1;stroke-width:0.264584"
           x="163.61607"
           y="115.08278"
           id="tspan91">method = 'post'</tspan><tspan
           style="font-style:italic;font-variant:normal;font-weight:500;font-stretch:normal;font-size:9.42882px;-inkscape-font-specification:'JetBrains Mono, SemiBold Italic';font-variant-ligatures:normal;font-variant-caps:normal;font-variant-numeric:normal;font-variant-east-asian:normal;fill:#96928f;fill-opacity:1;stroke-width:0.264584"
           x="163.61607"
           y="127.20301"
           id="tspan93">action = ''</tspan><tspan
           style="font-style:italic;font-variant:normal;font-weight:500;font-stretch:normal;font-size:9.42882px;-inkscape-font-specification:'JetBrains Mono, SemiBold Italic';font-variant-ligatures:normal;font-variant-caps:normal;font-variant-numeric:normal;font-variant-east-asian:normal;fill:#96928f;fill-opacity:1;stroke-width:0.264584"
           x="163.61607"
           y="139.32326"
           id="tspan95">label = ...</tspan><tspan
           style="font-style:italic;font-variant:normal;font-weight:500;font-stretch:normal;font-size:9.42882px;-inkscape-font-specification:'JetBrains Mono, SemiBold Italic';font-variant-ligatures:normal;font-variant-caps:normal;font-variant-numeric:normal;font-variant-east-asian:normal;fill:#96928f;fill-opacity:1;stroke-width:0.264584"
           x="163.61607"
           y="151.44348"
           id="tspan97">-#}</tspan><tspan
           style="font-style:normal;font-variant:normal;font-weight:500;font-stretch:normal;font-size:9.42882px;font-variant-ligatures:normal;font-variant-caps:normal;font-variant-numeric:normal;font-variant-east-asian:normal;fill:#348acb;fill-opacity:1;stroke-width:0.264584"
           x="163.61607"
           y="163.56372"
           id="tspan99">&lt;form</tspan><tspan
           style="font-style:normal;font-variant:normal;font-weight:500;font-stretch:normal;font-size:9.42882px;font-variant-ligatures:normal;font-variant-caps:normal;font-variant-numeric:normal;font-variant-east-asian:normal;fill:#348acb;fill-opacity:1;stroke-width:0.264584"
           x="163.61607"
           y="175.68396"
           id="tspan101">  <tspan
   style="font-style:normal;font-variant:normal;font-weight:500;font-stretch:normal;font-size:9.42882px;font-family:'JetBrains Mono';-inkscape-font-specification:'JetBrains Mono, Semi-Bold';font-variant-ligatures:normal;font-variant-caps:normal;font-variant-numeric:normal;font-variant-east-asian:normal;fill:#b12ca8;fill-opacity:1;stroke-width:0.264584"
   id="tspan179">method</tspan><tspan
   style="fill:#4d4d4c;fill-opacity:1;stroke-width:0.264584"
   id="tspan12246">=</tspan><tspan
   style="fill:#3c8412;fill-opacity:1;stroke-width:0.264584"
   id="tspan5247">&quot;<tspan
   style="fill:#001ffe;fill-opacity:1;stroke-width:0.264584"
   id="tspan6769">{{</tspan> </tspan><tspan
   style="fill:#333333;fill-opacity:1;stroke-width:0.264584"
   id="tspan15166">method</tspan><tspan
   style="fill:#3c8412;fill-opacity:1;stroke-width:0.264584"
   id="tspan5249"> <tspan
   style="fill:#001ffe;fill-opacity:1;stroke-width:0.264584"
   id="tspan6777">}}</tspan>&quot;</tspan></tspan><tspan
           style="font-style:normal;font-variant:normal;font-weight:500;font-stretch:normal;font-size:9.42882px;font-variant-ligatures:normal;font-variant-caps:normal;font-variant-numeric:normal;font-variant-east-asian:normal;fill:#348acb;fill-opacity:1;stroke-width:0.264584"
           x="163.61607"
           y="187.8042"
           id="tspan103">  <tspan
   style="font-style:italic;font-weight:500;fill:#b12ca8;fill-opacity:1;stroke-width:0.264584"
   id="tspan181">action</tspan><tspan
   style="fill:#4d4d4c;fill-opacity:1;stroke-width:0.264584"
   id="tspan13700">=</tspan><tspan
   style="fill:#3c8412;fill-opacity:1;stroke-width:0.264584"
   id="tspan5251">&quot;</tspan><tspan
   id="tspan6775"
   style="fill:#001ffe;fill-opacity:1;stroke-width:0.264584">{{</tspan> <tspan
   style="fill:#333333;fill-opacity:1;stroke-width:0.264584"
   id="tspan15168">action</tspan> <tspan
   id="tspan6787"
   style="fill:#001ffe;fill-opacity:1;stroke-width:0.264584">}}</tspan><tspan
   style="fill:#3c8412;fill-opacity:1;stroke-width:0.264584"
   id="tspan5253">&quot;</tspan></tspan><tspan
           style="font-style:normal;font-variant:normal;font-weight:500;font-stretch:normal;font-size:9.42882px;font-variant-ligatures:normal;font-variant-caps:normal;font-variant-numeric:normal;font-variant-east-asian:normal;fill:#348acb;fill-opacity:1;stroke-width:0.264584"
           x="163.61607"
           y="199.92444"
           id="tspan105">  <tspan
   style="fill:#001ffe;fill-opacity:1;stroke-width:0.264584"
   id="tspan6765">{{</tspan> <tspan
   style="fill:#333333;fill-opacity:1;stroke-width:0.264584"
   id="tspan15162">html_attrs</tspan> <tspan
   style="fill:#001ffe;fill-opacity:1;stroke-width:0.264584"
   id="tspan6767">}}</tspan></tspan><tspan
           style="font-style:normal;font-variant:normal;font-weight:500;font-stretch:normal;font-size:9.42882px;font-variant-ligatures:normal;font-variant-caps:normal;font-variant-numeric:normal;font-variant-east-asian:normal;fill:#348acb;fill-opacity:1;stroke-width:0.264584"
           x="163.61607"
           y="212.04468"
           id="tspan107">&gt;</tspan><tspan
           style="font-style:normal;font-variant:normal;font-weight:500;font-stretch:normal;font-size:9.42882px;font-variant-ligatures:normal;font-variant-caps:normal;font-variant-numeric:normal;font-variant-east-asian:normal;fill:#348acb;fill-opacity:1;stroke-width:0.264584"
           x="163.61607"
           y="224.16492"
           id="tspan109">  <tspan
   style="fill:#001ffe;fill-opacity:1;stroke-width:0.264584"
   id="tspan6761">{%</tspan> <tspan
   style="font-style:italic;font-weight:500;fill:#7c13a4;fill-opacity:1;stroke-width:0.264584"
   id="tspan185">if</tspan> <tspan
   style="fill:#333333;fill-opacity:1;stroke-width:0.264584"
   id="tspan15164">method.lower()</tspan> == <tspan
   style="fill:#3c8412;fill-opacity:1;stroke-width:0.264584"
   id="tspan5255">&quot;post&quot;</tspan> <tspan
   style="fill:#001ffe;fill-opacity:1;stroke-width:0.264584"
   id="tspan6763">-%}</tspan></tspan><tspan
           style="font-style:normal;font-variant:normal;font-weight:500;font-stretch:normal;font-size:9.42882px;font-variant-ligatures:normal;font-variant-caps:normal;font-variant-numeric:normal;font-variant-east-asian:normal;fill:#348acb;fill-opacity:1;stroke-width:0.264584"
           x="163.61607"
           y="236.28516"
           id="tspan111">  &lt;input <tspan
   style="font-style:italic;font-weight:500;fill:#b12ca8;fill-opacity:1;stroke-width:0.264584"
   id="tspan189">type</tspan><tspan
   style="fill:#4d4d4c;fill-opacity:1;stroke-width:0.264584"
   id="tspan14428">=</tspan><tspan
   style="fill:#3c8412;fill-opacity:1;stroke-width:0.264584"
   id="tspan5257">&quot;hidden&quot;</tspan> <tspan
   style="font-style:italic;font-weight:500;fill:#b12ca8;fill-opacity:1;stroke-width:0.264584"
   id="tspan207">name</tspan><tspan
   style="fill:#4d4d4c;fill-opacity:1;stroke-width:0.264584"
   id="tspan14430">=</tspan><tspan
   style="fill:#3c8412;fill-opacity:1;stroke-width:0.264584"
   id="tspan5259">&quot;csrftoken&quot;</tspan></tspan><tspan
           style="font-style:normal;font-variant:normal;font-weight:500;font-stretch:normal;font-size:9.42882px;font-variant-ligatures:normal;font-variant-caps:normal;font-variant-numeric:normal;font-variant-east-asian:normal;fill:#348acb;fill-opacity:1;stroke-width:0.264584"
           x="163.61607"
           y="248.4054"
           id="tspan113">    <tspan
   style="font-style:italic;font-weight:500;fill:#b12ca8;fill-opacity:1;stroke-width:0.264584"
   id="tspan209">value</tspan><tspan
   style="fill:#4d4d4c;fill-opacity:1;stroke-width:0.264584"
   id="tspan14432">=</tspan><tspan
   style="fill:#3c8412;fill-opacity:1;stroke-width:0.264584"
   id="tspan5261">&quot;</tspan><tspan
   style="fill:#001ffe;fill-opacity:1;stroke-width:0.264584"
   id="tspan6781">{{</tspan> <tspan
   style="fill:#333333;fill-opacity:1;stroke-width:0.264584"
   id="tspan15170">csrftoken</tspan> <tspan
   style="fill:#001ffe;fill-opacity:1;stroke-width:0.264584"
   id="tspan6783">}}</tspan><tspan
   style="fill:#3c8412;fill-opacity:1;stroke-width:0.264584"
   id="tspan5263">&quot;</tspan>&gt;</tspan><tspan
           style="font-style:normal;font-variant:normal;font-weight:500;font-stretch:normal;font-size:9.42882px;font-variant-ligatures:normal;font-variant-caps:normal;font-variant-numeric:normal;font-variant-east-asian:normal;fill:#348acb;fill-opacity:1;stroke-width:0.264584"
           x="163.61607"
           y="260.52563"
           id="tspan115">  <tspan
   style="fill:#001ffe;fill-opacity:1;stroke-width:0.264584"
   id="tspan15908">{%</tspan> <tspan
   style="font-style:italic;font-weight:500;fill:#7c13a4;fill-opacity:1;stroke-width:0.264584"
   id="tspan187">endif</tspan> <tspan
   style="fill:#001ffe;fill-opacity:1;stroke-width:0.264584"
   id="tspan15910">-%}</tspan></tspan><tspan
           style="font-style:normal;font-variant:normal;font-weight:500;font-stretch:normal;font-size:9.42882px;font-variant-ligatures:normal;font-variant-caps:normal;font-variant-numeric:normal;font-variant-east-asian:normal;fill:#348acb;fill-opacity:1;stroke-width:0.264584"
           x="163.61607"
           y="272.64584"
           id="tspan117" /><tspan
           style="font-style:normal;font-variant:normal;font-weight:500;font-stretch:normal;font-size:9.42882px;font-variant-ligatures:normal;font-variant-caps:normal;font-variant-numeric:normal;font-variant-east-asian:normal;fill:#348acb;fill-opacity:1;stroke-width:0.264584"
           x="163.61607"
           y="284.6445"
           id="tspan119">  <tspan
   style="fill:#001ffe;fill-opacity:1;stroke-width:0.264584"
   id="tspan6785">{{ <tspan
   style="fill:#333333;fill-opacity:1;stroke-width:0.264584"
   id="tspan15172">content</tspan> }}</tspan></tspan><tspan
           style="font-style:normal;font-variant:normal;font-weight:500;font-stretch:normal;font-size:9.42882px;font-variant-ligatures:normal;font-variant-caps:normal;font-variant-numeric:normal;font-variant-east-asian:normal;fill:#348acb;fill-opacity:1;stroke-width:0.264584"
           x="163.61607"
           y="296.76474"
           id="tspan121" /><tspan
           style="font-style:normal;font-variant:normal;font-weight:500;font-stretch:normal;font-size:9.42882px;font-variant-ligatures:normal;font-variant-caps:normal;font-variant-numeric:normal;font-variant-east-asian:normal;fill:#348acb;fill-opacity:1;stroke-width:0.264584"
           x="163.61607"
           y="308.76343"
           id="tspan123">  &lt;Button <tspan
   style="fill:#b12ca8;fill-opacity:1;stroke-width:0.264584"
   id="tspan9703">label</tspan><tspan
   style="fill:#4d4d4c;fill-opacity:1;stroke-width:0.264584"
   id="tspan14434">=</tspan><tspan
   style="fill:#001ffe;fill-opacity:1;stroke-width:0.264584"
   id="tspan12242">{{</tspan> <tspan
   style="fill:#333333;fill-opacity:1;stroke-width:0.264584"
   id="tspan15174">label</tspan> <tspan
   style="fill:#001ffe;fill-opacity:1;stroke-width:0.264584"
   id="tspan12244">}}</tspan> /&gt;</tspan><tspan
           style="font-style:normal;font-variant:normal;font-weight:500;font-stretch:normal;font-size:9.42882px;font-variant-ligatures:normal;font-variant-caps:normal;font-variant-numeric:normal;font-variant-east-asian:normal;fill:#348acb;fill-opacity:1;stroke-width:0.264584"
           x="163.61607"
           y="320.88367"
           id="tspan125">&lt;/form&gt;</tspan><tspan
           style="font-style:normal;font-variant:normal;font-weight:500;font-stretch:normal;font-size:9.42882px;font-variant-ligatures:normal;font-variant-caps:normal;font-variant-numeric:normal;font-variant-east-asian:normal;fill:#348acb;fill-opacity:1;stroke-width:0.264584"
           x="163.61607"
           y="333.00391"
           id="tspan127" /></text>
      <text
         xml:space="preserve"
         style="font-style:normal;font-weight:normal;font-size:4.93889px;line-height:1.25;font-family:sans-serif;white-space:pre;inline-size:116.856;display:inline;fill:#333333;fill-opacity:1;stroke:none;stroke-width:0.138591;stroke-opacity:1"
         x="281.99014"
         y="36.902409"
         id="text1141-74-2-6-1-0-1"
         transform="matrix(1.8913674,0,0,1.926991,-372.28131,-32.089277)"><tspan
           x="281.99014"
           y="36.902409"
           id="tspan11977"><tspan
             style="font-style:italic;font-family:'JetBrains Mono';-inkscape-font-specification:'JetBrains Mono'"
             id="tspan11973">components/</tspan><tspan
             style="font-style:italic;font-weight:bold"
             id="tspan11975">Form.html.jinja
</tspan></tspan><tspan
           x="281.99014"
           y="43.148145"
           id="tspan11981"><tspan
             style="font-style:italic;font-weight:bold"
             id="tspan11979"> </tspan></tspan></text>
    </g>
    <path
       style="fill:none;stroke:#dfdfdf;stroke-width:0.5;stroke-linecap:butt;stroke-linejoin:miter;stroke-dasharray:1, 0.5;stroke-dashoffset:0;stroke-opacity:1"
       d="m 159.72624,47.744509 c 176.46541,0 179.09921,0 179.09921,0"
       id="path3805" />
    <text
       xml:space="preserve"
       style="font-style:normal;font-variant:normal;font-weight:bold;font-stretch:normal;font-size:7.65367px;line-height:1.25;font-family:'Bradley Hand';-inkscape-font-specification:'Bradley Hand, Bold';font-variant-ligatures:normal;font-variant-caps:normal;font-variant-numeric:normal;font-variant-east-asian:normal;text-align:start;text-anchor:start;white-space:pre;inline-size:184.998;display:inline;fill:#000000;fill-opacity:1;stroke:none;stroke-width:0.178884"
       x="403.10562"
       y="36.902409"
       id="text1141"
       transform="matrix(1.4614736,0.09528271,-0.09668726,1.490583,-324.27219,-134.88393)"><tspan
         x="403.10562"
         y="36.902409"
         id="tspan11985"><tspan
           style="text-align:center;text-anchor:middle"
           id="tspan11983">
</tspan></tspan><tspan
         x="403.10562"
         y="46.469494"
         id="tspan11989"><tspan
           style="text-align:center;text-anchor:middle"
           id="tspan11987">Everything before the first dot is the component name.
</tspan></tspan><tspan
         x="403.10562"
         y="56.036579"
         id="tspan11993"><tspan
           style="text-align:center;text-anchor:middle"
           id="tspan11991">You can use ASCII letters, numbers, and dashes, but it </tspan></tspan><tspan
         x="403.10562"
         y="65.603665"
         id="tspan11997"><tspan
           style="text-align:center;text-anchor:middle"
           id="tspan11995">must start with an uppercase letter-</tspan></tspan></text>
    <text
       xml:space="preserve"
       style="font-style:normal;font-variant:normal;font-weight:bold;font-stretch:normal;font-size:11.3203px;line-height:1.25;font-family:'Bradley Hand';-inkscape-font-specification:'Bradley Hand, Bold';font-variant-ligatures:normal;font-variant-caps:normal;font-variant-numeric:normal;font-variant-east-asian:normal;fill:#000000;fill-opacity:1;stroke:none;stroke-width:0.264584"
       x="109.80433"
       y="-18.052265"
       id="text1141-2"
       transform="matrix(0.98913454,0.04676353,-0.04585115,1.0088171,0,0)"><tspan
         sodipodi:role="line"
         style="font-style:normal;font-variant:normal;font-weight:bold;font-stretch:normal;font-size:11.3203px;font-family:'Bradley Hand';-inkscape-font-specification:'Bradley Hand, Bold';font-variant-ligatures:normal;font-variant-caps:normal;font-variant-numeric:normal;font-variant-east-asian:normal;text-align:center;text-anchor:middle;stroke-width:0.264584"
         x="109.80433"
         y="-18.052265"
         id="tspan1147-5">Optional TOML metadata</tspan><tspan
         sodipodi:role="line"
         style="font-style:normal;font-variant:normal;font-weight:bold;font-stretch:normal;font-size:11.3203px;font-family:'Bradley Hand';-inkscape-font-specification:'Bradley Hand, Bold';font-variant-ligatures:normal;font-variant-caps:normal;font-variant-numeric:normal;font-variant-east-asian:normal;text-align:center;text-anchor:middle;stroke-width:0.264584"
         x="109.80433"
         y="-3.90189"
         id="tspan1283">inside a Jinja comment</tspan><tspan
         sodipodi:role="line"
         style="font-style:normal;font-variant:normal;font-weight:bold;font-stretch:normal;font-size:11.3203px;font-family:'Bradley Hand';-inkscape-font-specification:'Bradley Hand, Bold';font-variant-ligatures:normal;font-variant-caps:normal;font-variant-numeric:normal;font-variant-east-asian:normal;text-align:center;text-anchor:middle;stroke-width:0.264584"
         x="109.80433"
         y="10.248486"
         id="tspan1285" /></text>
    <text
       xml:space="preserve"
       style="font-style:normal;font-variant:normal;font-weight:bold;font-stretch:normal;font-size:7.65367px;line-height:1.25;font-family:'Bradley Hand';-inkscape-font-specification:'Bradley Hand, Bold';font-variant-ligatures:normal;font-variant-caps:normal;font-variant-numeric:normal;font-variant-east-asian:normal;white-space:pre;inline-size:71.7898;display:inline;fill:#000000;fill-opacity:1;stroke:none;stroke-width:0.178884"
       x="64.277588"
       y="93.129066"
       id="text1141-7"
       transform="matrix(1.460493,-0.11143636,0.10926219,1.4895549,-79.084495,-47.76659)"><tspan
         x="64.277588"
         y="93.129066"
         id="tspan12001"><tspan
           style="text-align:center;text-anchor:middle"
           id="tspan11999">Attributes with a </tspan></tspan><tspan
         x="64.277588"
         y="102.69615"
         id="tspan12007"><tspan
           style="text-align:center;text-anchor:middle"
           id="tspan12003">default value, </tspan><tspan
           style="text-align:center;text-anchor:middle"
           id="tspan12005">so it's </tspan></tspan><tspan
         x="64.277588"
         y="112.26323"
         id="tspan12011"><tspan
           style="text-align:center;text-anchor:middle"
           id="tspan12009">optional to override </tspan></tspan><tspan
         x="64.277588"
         y="121.83032"
         id="tspan12015"><tspan
           style="text-align:center;text-anchor:middle"
           id="tspan12013">them</tspan></tspan></text>
    <text
       xml:space="preserve"
       style="font-style:normal;font-variant:normal;font-weight:bold;font-stretch:normal;font-size:7.65367px;line-height:1.25;font-family:'Bradley Hand';-inkscape-font-specification:'Bradley Hand, Bold';font-variant-ligatures:normal;font-variant-caps:normal;font-variant-numeric:normal;font-variant-east-asian:normal;text-align:center;text-anchor:middle;white-space:pre;inline-size:104.342;display:inline;fill:#000000;fill-opacity:1;stroke:none;stroke-width:0.178884"
       x="339.2847"
       y="36.902409"
       id="text1141-74"
       transform="matrix(1.4623898,0.08155336,-0.07996223,1.4914895,-115.69392,-8.040713)"><tspan
         x="339.2847"
         y="36.902409"
         id="tspan12017">Optional lists of CSS and JS<tspan
   y="36.902409"
   id="tspan12019"> </tspan></tspan><tspan
         x="339.2847"
         y="46.469494"
         id="tspan12021">files. Paths are relative to the<tspan
   y="46.469494"
   id="tspan12023"> </tspan></tspan><tspan
         x="339.2847"
         y="56.036579"
         id="tspan12025">root of the components folder</tspan></text>
    <text
       xml:space="preserve"
       style="font-style:normal;font-variant:normal;font-weight:bold;font-stretch:normal;font-size:7.65367px;line-height:1.25;font-family:'Bradley Hand';-inkscape-font-specification:'Bradley Hand, Bold';font-variant-ligatures:normal;font-variant-caps:normal;font-variant-numeric:normal;font-variant-east-asian:normal;white-space:pre;inline-size:85.2911;display:inline;fill:#000000;fill-opacity:1;stroke:none;stroke-width:0.178884"
       x="340.1525"
       y="36.902409"
       id="text1141-74-2"
       transform="matrix(1.4386331,-0.27989241,0.27443157,1.4672601,-480.51497,241.93645)"><tspan
         x="340.1525"
         y="36.902409"
         id="tspan12029"><tspan
           style="text-align:center;text-anchor:middle"
           id="tspan12027">Attribute without a </tspan></tspan><tspan
         x="340.1525"
         y="46.469494"
         id="tspan12035"><tspan
           style="text-align:center;text-anchor:middle"
           id="tspan12031">default </tspan><tspan
           style="text-align:center;text-anchor:middle"
           id="tspan12033">value, so  you </tspan></tspan><tspan
         x="340.1525"
         y="56.036579"
         id="tspan12043"><tspan
           style="text-align:center;text-anchor:middle"
           id="tspan12037">must give </tspan><tspan
           style="text-align:center;text-anchor:middle"
           id="tspan12039">one </tspan><tspan
           style="text-align:center;text-anchor:middle"
           id="tspan12041">when </tspan></tspan><tspan
         x="340.1525"
         y="65.603665"
         id="tspan12049"><tspan
           style="text-align:center;text-anchor:middle"
           id="tspan12045">calling the </tspan><tspan
           style="text-align:center;text-anchor:middle"
           id="tspan12047">component</tspan></tspan></text>
    <text
       xml:space="preserve"
       style="font-style:normal;font-variant:normal;font-weight:bold;font-stretch:normal;font-size:7.65367px;line-height:1.25;font-family:'Bradley Hand';-inkscape-font-specification:'Bradley Hand, Bold';font-variant-ligatures:normal;font-variant-caps:normal;font-variant-numeric:normal;font-variant-east-asian:normal;white-space:pre;inline-size:84.5814;display:inline;fill:#000000;fill-opacity:1;stroke:none;stroke-width:0.178884"
       x="334.92789"
       y="36.902409"
       id="text1141-74-2-6"
       transform="matrix(1.4616254,0.09930928,-0.09425512,1.490327,-93.050079,107.6711)"
       inkscape:transform-center-x="-6.1908107"
       inkscape:transform-center-y="-28.300849"><tspan
         x="334.92789"
         y="36.902409"
         id="tspan12053"><tspan
           style="text-align:center;text-anchor:middle"
           id="tspan12051">HTML fragment (or a </tspan></tspan><tspan
         x="334.92789"
         y="46.469494"
         id="tspan12057"><tspan
           style="text-align:center;text-anchor:middle"
           id="tspan12055">whole page).
</tspan></tspan><tspan
         x="334.92789"
         y="56.036579"
         id="tspan12061"><tspan
           style="text-align:center;text-anchor:middle"
           id="tspan12059">No need to have a single </tspan></tspan><tspan
         x="334.92789"
         y="65.603665"
         id="tspan12065"><tspan
           style="text-align:center;text-anchor:middle"
           id="tspan12063">parent element like in </tspan></tspan><tspan
         x="334.92789"
         y="75.17075"
         id="tspan12069"><tspan
           style="text-align:center;text-anchor:middle"
           id="tspan12067">React</tspan></tspan></text>
    <text
       xml:space="preserve"
       style="font-style:normal;font-variant:normal;font-weight:bold;font-stretch:normal;font-size:7.65367px;line-height:1.25;font-family:'Bradley Hand';-inkscape-font-specification:'Bradley Hand, Bold';font-variant-ligatures:normal;font-variant-caps:normal;font-variant-numeric:normal;font-variant-east-asian:normal;white-space:pre;inline-size:67.0726;display:inline;fill:#000000;fill-opacity:1;stroke:none;stroke-width:0.178884"
       x="308.31085"
       y="36.902409"
       id="text1141-74-2-6-1"
       transform="matrix(1.4624353,0.09281997,-0.08499349,1.4905078,-92.700533,243.60548)"
       inkscape:transform-center-x="22.652966"
       inkscape:transform-center-y="3.3084712"><tspan
         x="308.31085"
         y="36.902409"
         id="tspan12073"><tspan
           style="text-align:center;text-anchor:middle"
           id="tspan12071">You can call any </tspan></tspan><tspan
         x="308.31085"
         y="46.469494"
         id="tspan12077"><tspan
           style="text-align:center;text-anchor:middle"
           id="tspan12075">other component</tspan></tspan></text>
    <text
       xml:space="preserve"
       style="font-style:normal;font-variant:normal;font-weight:bold;font-stretch:normal;font-size:7.98901px;line-height:1.25;font-family:'Bradley Hand';-inkscape-font-specification:'Bradley Hand, Bold';font-variant-ligatures:normal;font-variant-caps:normal;font-variant-numeric:normal;font-variant-east-asian:normal;white-space:pre;inline-size:71.7802;display:inline;fill:#000000;fill-opacity:1;stroke:none;stroke-width:0.213396"
       x="307.17737"
       y="36.902409"
       id="text1141-74-2-6-1-0-3"
       transform="matrix(1.1851406,0.1440622,-0.12670044,1.281716,-82.69931,39.297239)"><tspan
         x="307.17737"
         y="36.902409"
         id="tspan12083"><tspan
           style="text-align:center;text-anchor:middle"
           id="tspan12079">Yes, these are </tspan><tspan
           style="text-align:center;text-anchor:middle"
           id="tspan12081">three </tspan></tspan><tspan
         x="307.17737"
         y="46.888669"
         id="tspan12089"><tspan
           style="text-align:center;text-anchor:middle"
           id="tspan12085">unquoted </tspan><tspan
           style="text-align:center;text-anchor:middle"
           id="tspan12087">dots</tspan></tspan></text>
    <text
       xml:space="preserve"
       style="font-size:10.6128px;line-height:1.25;font-family:sans-serif;text-align:center;text-anchor:middle;stroke-width:0.26532"
       x="109.59755"
       y="-14.017689"
       id="text10798"><tspan
         sodipodi:role="line"
         id="tspan10796"
         style="stroke-width:0.26532"></tspan></text>
    <path
       style="fill:#333333;stroke-width:4.24513;stop-color:#000000"
       id="path11290"
       d="m 156.02789,59.497452 c -5.2004,-1.991888 -9.64025,-5.328107 -13.96481,-8.760881 -3.45095,-2.739317 -6.86163,-5.66958 -10.22521,-8.516609 -7.00747,-5.764435 -13.18771,-12.406101 -19.22064,-19.156559 -3.11048,-3.527603 -6.32046,-6.958937 -9.82238,-10.099814 -0.6972,-0.730042 -1.57356,-1.278701 -2.29145,-1.985515 -0.15838,-0.155947 -0.26713,-0.349557 -0.43432,-0.501017 -0.380258,-0.341696 -0.644753,-0.8055187 -0.947574,-1.2158049 -0.04738,-0.079999 -1.178753,0.5900568 -1.131372,0.6700588 v 0 c 0.30756,0.4187951 0.576571,0.8908051 0.955483,1.2462611 0.181559,0.145546 0.278563,0.33672 0.44421,0.497 0.724303,0.700818 1.618443,1.231186 2.312203,1.967177 3.51267,3.126019 6.72336,6.555158 9.84551,10.069224 6.06571,6.734958 12.24848,13.391376 19.28865,19.134394 3.26993,2.760657 6.89219,5.853471 10.2257,8.522566 4.31108,3.45183 8.71161,6.820362 13.89595,8.859172 0.0516,0.07566 1.12164,-0.653991 1.07005,-0.729653 z" />
    <path
       style="fill:#333333;stroke-width:4.24513;stop-color:#000000"
       id="path11602"
       d="m 313.29163,37.434876 c 10.78933,-3.467431 21.73386,-6.830434 31.02498,-13.57725 0.88384,-0.64181 5.30389,-3.909383 5.15995,-6.415581 -0.0323,-0.563106 -0.71297,-0.874189 -1.06945,-1.311285 -0.24906,-0.137237 -0.51268,-0.250824 -0.74714,-0.411717 -0.0711,-0.0488 0.16532,0.09035 0.24913,0.06997 0.2199,-0.05348 0.42701,-0.159688 0.61817,-0.280857 1.0053,-0.637236 1.96027,-1.42094 2.86358,-2.194943 0.12688,-0.139824 0.23595,-0.298146 0.3806,-0.419472 0.0228,-0.01908 0.1134,0.0326 0.0838,0.02996 -0.21485,-0.01921 -0.42814,-0.05326 -0.6422,-0.07989 0.0416,0.06246 0.92488,-0.525844 0.88327,-0.588303 v 0 c -0.9136,-0.296097 -0.85353,-0.382674 -1.46157,0.312916 -0.87837,0.746384 -0.49944,0.44571 -1.63572,1.289349 -0.43534,0.323221 -1.91697,1.290275 -2.15075,1.898323 -0.29954,0.779129 0.39215,0.92721 0.81255,1.129286 0.26757,0.07999 0.78171,-0.03851 0.80275,0.239982 0.1784,2.361228 -4.09257,5.382636 -4.78954,5.887586 -9.16875,6.642473 -19.95727,9.964094 -30.59787,13.382735 -0.0735,0.01523 0.14195,1.054421 0.21542,1.039189 z" />
    <path
       id="path11676-6-0"
       style="fill:#333333;stroke-width:3.99186;stop-color:#000000"
       d="m 316.27432,38.924822 c 0.19701,-0.352507 0.15413,-0.864253 0.15413,-0.864253 0,0 -2.47159,-0.90925 -3.29176,-1.193915 1.13797,-1.156489 0.98827,-1.380411 1.9972,-2.539421 -0.0438,-0.194654 -0.55647,-0.790606 -0.55647,-0.790606 0,0 -1.86816,2.29749 -2.95383,3.776852 1.45973,0.832275 4.65061,1.61131 4.65061,1.61131 z"
       sodipodi:nodetypes="cccccccc" />
    <path
       style="fill:#333333;stroke-width:4.24513;stop-color:#000000"
       id="path11604"
       d="m 269.61744,77.451425 c 7.76527,0 15.53053,0 23.29577,0 2.28346,0 4.56688,0 6.85034,0 0.66991,0 1.33981,0 2.00972,0 -0.49665,-0.03412 -0.32337,0.0883 -0.52709,-0.356792 -0.0368,0.06537 0.88761,0.58661 0.92449,0.521243 v 0 c 0.16699,-1.02969 0.33687,-0.617615 -0.56344,-1.212665 -0.6699,0 -1.33981,0 -2.00969,0 -2.28346,0 -4.56688,0 -6.85034,0 -7.76527,0 -15.53051,0 -23.29577,0 -0.0741,0.01173 0.0919,1.059955 0.16601,1.048214 z" />
    <path
       style="fill:#333333;stroke-width:4.06729;stop-color:#000000"
       id="path11628"
       d="m 256.97818,92.001257 c 2.62248,-0.07199 5.24566,-0.118176 7.86744,-0.215968 3.14595,-0.117343 6.29429,-0.20176 9.43514,-0.429416 7.84403,-0.56855 15.59578,-1.763134 23.40506,-2.629079 1.53181,-0.169858 3.06851,-0.282903 4.60276,-0.424354 0.22251,-0.0082 3.36478,0.380382 1.44173,-0.640939 -0.23187,-0.12313 -0.50689,-0.104388 -0.76033,-0.156585 -0.066,0.02139 0.2117,1.03864 0.27773,1.017247 v 0 c 0.46675,-0.168094 1.10983,-0.0722 1.40025,-0.504281 0.52667,-0.78355 -3.40934,-2.402103 -2.58479,-0.747925 -1.54295,0.14384 -3.08824,0.260183 -4.62883,0.431519 -7.78341,0.865643 -15.52892,2.05041 -23.34193,2.613139 -3.13612,0.225878 -6.27963,0.310316 -9.4208,0.426457 -2.61457,0.09667 -5.23055,0.141313 -7.84583,0.21197 -0.068,0.01173 0.0844,1.059956 0.1524,1.048215 z" />
    <path
       style="fill:#333333;stroke-width:4.24513;stop-color:#000000"
       id="path11632"
       d="m 225.36242,140.71966 34.38575,0.0663 h 8.43502 4.2986 4.4858 c 0.34486,-0.0805 0.69214,-0.15135 1.03459,-0.24155 0.23687,-0.0624 0.85677,-0.28839 1.17239,-0.32137 0.0713,-0.007 0.2835,0.0413 0.21311,0.028 -0.45097,-0.0856 -0.36763,-0.0718 -0.0961,0.0538 0.0666,0.0346 0.55568,-0.90727 0.48909,-0.94186 v 0 c -0.23876,-0.0209 -0.0461,8e-4 -0.55903,-0.16016 -0.82271,-0.11351 -1.60835,0.53232 -2.4201,0.53492 h -4.48582 -4.29858 -8.43503 l -34.38574,-0.0663 c 0,0 -1.30103,1.04822 0.16602,1.04822 z"
       sodipodi:nodetypes="cccccscccssccccccsc" />
    <path
       style="fill:#333333;stroke-width:4.24513;stop-color:#000000"
       id="path11638"
       d="m 155.35847,119.62477 c -19.72964,0 -39.45928,0 -59.188928,0 0.838042,0.3494 1.676085,0.69881 2.514127,1.04822 0.07412,-0.0117 -0.0919,-1.05996 -0.166022,-1.04822 v 0 c -0.838041,0.3494 -1.676082,0.69881 -2.514126,1.04822 19.729639,0 39.459289,0 59.188929,0 0.0741,0.0117 0.24014,-1.03648 0.16602,-1.04822 z" />
    <path
       style="fill:#333333;stroke-width:4.24513;stop-color:#000000"
       id="path11648"
       d="m 156.59136,140.76436 c -5.17788,6.17512 -6.56111,7.28611 -10.65595,14.42536 -1.12982,1.96982 -2.12858,4.0268 -2.91733,6.15626 -1.3186,3.55993 -1.57306,7.39046 -1.93843,11.12508 -0.25415,2.27443 -1.44251,4.06262 -2.93971,5.71699 -0.30464,0.33663 -0.63047,0.65575 -0.9774,0.94861 -0.0477,0.0403 -0.2249,-0.0154 -0.18455,0.0322 0.23299,0.27522 0.54302,0.47461 0.81454,0.71192 0.0813,-0.11596 0.1625,-0.23193 0.24375,-0.34789 0.0366,-0.0655 -0.8901,-0.58282 -0.92668,-0.51729 v 0 c -0.008,0.0245 -0.0158,0.0489 -0.0237,0.0734 0.14447,0.33092 0.15804,0.7592 0.43341,0.99276 0.12935,0.10971 0.31544,-0.13793 0.44398,-0.24859 0.37022,-0.31871 0.71876,-0.66426 1.04192,-1.0306 1.59697,-1.81033 2.8573,-3.78328 3.13164,-6.23848 0.35406,-3.61949 0.58326,-7.35712 1.85951,-10.80664 0.77295,-2.08918 1.75127,-4.10776 2.8598,-6.03993 4.04886,-7.05719 5.40681,-8.14314 10.52689,-14.24636 0.05,-0.056 -0.7417,-0.76277 -0.79168,-0.70679 z" />
    <path
       style="fill:#333333;stroke-width:5.12612;stop-color:#000000"
       id="path11666"
       d="m 357.64228,331.19499 c -13.50386,-1.87222 -27.04064,-3.63393 -40.46102,-5.78115 -6.20318,-0.99247 -12.36934,-2.09195 -18.53077,-3.19996 -9.66529,-1.73814 -7.00632,-0.58305 -10.79327,-2.40448 -0.0821,-0.0496 -1.10514,0.74664 -1.02305,0.79628 v 0 c 4.1763,1.96742 1.39438,0.81705 11.21509,2.58609 6.1758,1.11247 12.35646,2.21609 18.5744,3.21204 13.42649,2.15063 26.96998,3.9135 40.48075,5.78628 0.1025,0.026 0.64043,-0.96903 0.53787,-0.9951 z" />
    <path
       id="path11676"
       style="fill:#333333;stroke-width:3.99186;stop-color:#000000"
       d="m 154.80103,56.183257 c -0.39527,0.08268 -0.75326,0.450875 -0.75326,0.450875 0,0 0.93605,2.461562 1.25955,3.267194 -1.61942,-0.09959 -2.84531,-0.110687 -4.38194,-0.111265 -0.11817,0.160744 -0.22229,0.941474 -0.74938,0.939045 2.08313,0.02655 4.63277,0.172353 6.46146,0.02055 -0.33005,-1.647589 -1.83643,-4.566403 -1.83643,-4.566403 z"
       sodipodi:nodetypes="cccccccc" />
    <path
       id="path11676-2"
       style="fill:#333333;stroke-width:3.99186;stop-color:#000000"
       d="m 152.19984,117.40875 c -0.26973,0.30054 -0.3405,0.80916 -0.3405,0.80916 0,0 2.21105,1.43064 2.94852,1.88873 -1.36448,0.87786 -2.35933,1.59424 -3.59847,2.50294 -1.6e-4,0.19951 0.37783,0.89053 -0.0485,1.20043 1.69512,-1.21107 3.83683,-2.60211 5.22131,-3.80643 -1.24091,-1.13297 -4.1823,-2.5948 -4.1823,-2.5948 z"
       sodipodi:nodetypes="cccccccc" />
    <path
       id="path11676-5"
       style="fill:#333333;stroke-width:3.99186;stop-color:#000000"
       d="m 153.03022,141.17896 c 0.039,0.40194 0.36581,0.79804 0.36581,0.79804 0,0 2.54915,-0.6613 3.38532,-0.89478 -0.27606,1.59881 -0.42112,2.81614 -0.5897,4.3435 0.14688,0.135 0.91153,0.3239 0.85149,0.84756 0.25409,-2.06775 0.67783,-4.58615 0.72683,-6.42049 -1.6738,0.14794 -4.7398,1.32616 -4.7398,1.32616 z"
       sodipodi:nodetypes="cccccccc" />
    <path
       id="path11676-6"
       style="fill:#333333;stroke-width:3.99186;stop-color:#000000"
       d="m 227.48443,142.91081 c 0.27857,-0.29236 0.36444,-0.79867 0.36444,-0.79867 0,0 -2.1674,-1.49594 -2.89088,-1.97583 1.39006,-0.83677 1.30082,-1.09091 2.56652,-1.96225 0.006,-0.19944 -0.34212,-0.90425 -0.34212,-0.90425 0,0 -2.38132,1.76006 -3.8011,2.92256 1.20657,1.16948 4.10304,2.71838 4.10304,2.71838 z"
       sodipodi:nodetypes="cccccccc" />
  </g>
</svg>
