<svg width="16" height="16" class="icon fill-current" viewBox="0 0 49.23 48" xmlns="http://www.w3.org/2000/svg">
  <path d="m16.466 38.65c0 0.19851-0.22828 0.35731-0.51612 0.35731-0.32754 0.02978-0.55582-0.12903-0.55582-0.35731 0-0.19851 0.22828-0.35732 0.51612-0.35732 0.29776-0.02978 0.55582 0.12903 0.55582 0.35732zm-3.0868-0.44664c-0.06948 0.19851 0.12903 0.42679 0.42679 0.48634 0.25806 0.09925 0.55582 0 0.61538-0.19851 0.05955-0.19851-0.12903-0.42679-0.42679-0.51612-0.25806-0.06948-0.5459 0.02978-0.61538 0.22828zm4.387-0.16873c-0.28784 0.06948-0.48634 0.25806-0.45657 0.48634 0.02978 0.19851 0.28784 0.32754 0.5856 0.25806 0.28784-0.06948 0.48634-0.25806 0.45657-0.45657-0.02978-0.18858-0.29776-0.31761-0.5856-0.28784zm6.5309-38.034c-13.767 0-24.297 10.451-24.297 24.218 0 11.007 6.9279 20.426 16.824 23.742 1.2705 0.22828 1.7171-0.55582 1.7171-1.201 0-0.61538-0.02978-4.0099-0.02978-6.0942 0 0-6.9478 1.4888-8.4068-2.9578 0 0-1.1315-2.8883-2.7593-3.6327 0 0-2.2729-1.5583 0.15881-1.5285 0 0 2.4714 0.19851 3.8312 2.5608 2.1737 3.8312 5.8163 2.7295 7.2356 2.0744 0.22828-1.5881 0.87344-2.6898 1.5881-3.3449-5.5483-0.61538-11.146-1.4193-11.146-10.968 0-2.7295 0.75433-4.0992 2.3424-5.8461-0.25806-0.64515-1.1017-3.3052 0.25806-6.7394 2.0744-0.64515 6.8485 2.6799 6.8485 2.6799 1.9851-0.55582 4.119-0.84366 6.2332-0.84366 2.1141 0 4.2481 0.28784 6.2332 0.84366 0 0 4.7741-3.3349 6.8485-2.6799 1.3598 3.4441 0.51612 6.0942 0.25806 6.7394 1.5881 1.7568 2.5608 3.1265 2.5608 5.8461 0 9.578-5.8461 10.342-11.394 10.968 0.91314 0.78411 1.6873 2.2729 1.6873 4.6054 0 3.3449-0.02978 7.4838-0.02978 8.2976 0 0.64515 0.45657 1.4293 1.7171 1.201 9.9254-3.2952 16.655-12.714 16.655-23.722 3e-6 -13.767-11.166-24.218-24.933-24.218zm-14.65 34.233c-0.12903 0.09925-0.099254 0.32754 0.069478 0.51612 0.15881 0.15881 0.38709 0.22828 0.51612 0.09925 0.12903-0.09925 0.09925-0.32754-0.06948-0.51612-0.15881-0.15881-0.38709-0.22828-0.51612-0.09925zm-1.0719-0.80396c-0.069478 0.12903 0.029776 0.28784 0.22828 0.38709 0.15881 0.09925 0.35731 0.06948 0.42679-0.06948 0.069478-0.12903-0.029776-0.28784-0.22828-0.38709-0.19851-0.05955-0.35731-0.02978-0.42679 0.06948zm3.2158 3.5334c-0.15881 0.12903-0.09925 0.42679 0.12903 0.61538 0.22828 0.22828 0.51612 0.25806 0.64515 0.09925 0.12903-0.12903 0.06948-0.42679-0.12903-0.61538-0.21836-0.22828-0.51612-0.25806-0.64515-0.09925zm-1.1315-1.459c-0.15881 0.09925-0.15881 0.35732 0 0.5856 0.15881 0.22828 0.42679 0.32754 0.55582 0.22828 0.15881-0.12903 0.15881-0.38709 0-0.61538-0.13896-0.22828-0.39702-0.32754-0.55582-0.19851z" style="stroke-width:.1"/>
</svg>
